#!OML:ASF H:\Punching\Project 1\Capture day 1\Session 1\female.ASF
:FULLY-SPECIFIED
:DEGREES
1480
root 0.152882 15.3287 2.46323 -6.87162 -15.7517 6.78491
lowerback 4.90606 -1.57416 4.58358
upperback -2.31466 -2.09938 -5.86892
thorax -5.59293 -1.3489 -8.62453
lowerneck -3.38435 12.8796 13.1818
upperneck 31.7319 24.6517 -22.1594
head 17.2114 10.162 -7.67501
rclavicle 8.94531e-016 -3.85642e-014
rhumerus 19.8364 37.2932 -70.2389
rradius 125.538
rwrist -20.7751
rhand -31.0268 8.405
rfingers 7.12502
rthumb -4.30901 -21.5312
lclavicle 8.94531e-016 -3.85642e-014
lhumerus -11.7027 -8.59524 67.325
lradius 141.768
lwrist 0.283696
lhand -30.714 3.60376
lfingers 7.12502
lthumb -4.007 33.5458
rfemur -13.5581 7.14393 21.4374
rtibia 42.4093
rfoot -18.719 -16.539
rtoes 13.6927
lfemur -97.236 24.2121 -30.3716
ltibia 138.973
lfoot 32.0261 -11.1924
ltoes -11.2319
1481
root 0.161853 15.3285 2.40903 -5.82953 -15.0461 6.50642
lowerback 4.64193 -1.59229 4.50545
upperback -2.4859 -2.1289 -5.70314
thorax -5.61733 -1.36208 -8.39688
lowerneck -3.73909 12.7438 13.036
upperneck 31.7563 24.4029 -22.0464
head 17.1798 10.026 -7.62985
rclavicle -9.59136e-015 -7.15625e-015
rhumerus 20.0619 36.9859 -69.8533
rradius 125.603
rwrist -20.8676
rhand -31.0346 8.46953
rfingers 7.12502
rthumb -4.31657 -21.4665
lclavicle -9.59136e-015 -7.15625e-015
lhumerus -11.2312 -8.88591 67.4179
lradius 141.67
lwrist 0.324889
lhand -30.6961 3.453
lfingers 7.12502
lthumb -3.98964 33.3954
rfemur -14.9104 6.75257 21.4964
rtibia 42.6768
rfoot -18.6104 -16.7364
rtoes 13.7774
lfemur -94.9284 23.3879 -29.6466
ltibia 138.839
lfoot 32.4729 -11.8834
ltoes -11.4303
1482
root 0.17122 15.3287 2.35562 -4.80242 -14.3294 6.25416
lowerback 4.37466 -1.61823 4.4266
upperback -2.66865 -2.16941 -5.54041
thorax -5.65387 -1.38144 -8.17209
lowerneck -4.08333 12.6105 12.8845
upperneck 31.8029 24.1583 -21.9122
head 17.1544 9.89274 -7.57546
rclavicle 3.8266e-015 2.78299e-015
rhumerus 20.2516 36.7098 -69.5058
rradius 125.66
rwrist -20.9532
rhand -31.0408 8.545
rfingers 7.12502
rthumb -4.32253 -21.3909
lclavicle 3.8266e-015 2.78299e-015
lhumerus -10.7993 -9.16361 67.5024
lradius 141.571
lwrist 0.392687
lhand -30.6567 3.27333
lfingers 7.12502
lthumb -3.95166 33.2164
rfemur -16.2536 6.33783 21.539
rtibia 42.9421
rfoot -18.5051 -16.9213
rtoes 13.855
lfemur -92.4827 22.4211 -28.8115
ltibia 138.448
lfoot 32.684 -12.4952
ltoes -11.513
1483
root 0.181169 15.3296 2.30319 -3.79742 -13.6057 6.0406
lowerback 4.10873 -1.64891 4.34192
upperback -2.86236 -2.21738 -5.38816
thorax -5.70391 -1.4052 -7.95558
lowerneck -4.41307 12.4772 12.7316
upperneck 31.8675 23.9126 -21.7581
head 17.1315 9.76095 -7.51428
rclavicle 2.33572e-014 -2.14687e-014
rhumerus 20.4035 36.4561 -69.199
rradius 125.71
rwrist -21.0238
rhand -31.0446 8.62303
rfingers 7.12502
rthumb -4.32622 -21.3128
lclavicle 2.33572e-014 -2.14687e-014
lhumerus -10.4 -9.4299 67.5704
lradius 141.471
lwrist 0.480221
lhand -30.5894 3.11381
lfingers 7.12502
lthumb -3.88664 33.0581
rfemur -17.5819 5.90031 21.5544
rtibia 43.2074
rfoot -18.4068 -17.0982
rtoes 13.934
lfemur -89.9297 21.3016 -27.9275
ltibia 137.811
lfoot 32.6626 -12.942
ltoes -11.4705
1484
root 0.191826 15.3304 2.25177 -2.81362 -12.8837 5.85771
lowerback 3.83904 -1.68015 4.2641
upperback -3.06205 -2.2663 -5.24708
thorax -5.75873 -1.43015 -7.75615
lowerneck -4.73365 12.342 12.5735
upperneck 31.9489 23.6617 -21.5817
head 17.1092 9.62836 -7.44488
rclavicle -3.57315e-014 -2.50469e-014
rhumerus 20.5243 36.2127 -68.9232
rradius 125.758
rwrist -21.0858
rhand -31.0462 8.70012
rfingers 7.12502
rthumb -4.3277 -21.2357
lclavicle -3.57315e-014 -2.50469e-014
lhumerus -10.0182 -9.6812 67.617
lradius 141.367
lwrist 0.58297
lhand -30.5059 2.91449
lfingers 7.12502
lthumb -3.80603 32.8603
rfemur -18.8962 5.45337 21.5537
rtibia 43.4762
rfoot -18.3167 -17.2743
rtoes 14.0216
lfemur -87.315 20.0564 -27.0363
ltibia 136.955
lfoot 32.4325 -13.138
ltoes -11.3257
1485
root 0.203321 15.3309 2.20144 -1.85554 -12.1714 5.70502
lowerback 3.5737 -1.71025 4.19332
upperback -3.26626 -2.31378 -5.11831
thorax -5.82118 -1.45518 -7.57507
lowerneck -5.04018 12.2052 12.4218
upperneck 32.0323 23.4067 -21.3992
head 17.0847 9.49657 -7.37574
rclavicle -7.95139e-016 1.90833e-014
rhumerus 20.6253 35.9768 -68.6696
rradius 125.808
rwrist -21.1446
rhand -31.0561 8.7854
rfingers 7.12502
rthumb -4.33727 -21.1502
lclavicle -7.95139e-016 1.90833e-014
lhumerus -9.64904 -9.91437 67.6385
lradius 141.261
lwrist 0.690826
lhand -30.4017 2.66977
lfingers 7.12502
lthumb -3.70538 32.6173
rfemur -20.1934 5.00942 21.5371
rtibia 43.7533
rfoot -18.2334 -17.4531
rtoes 14.102
lfemur -84.6664 18.7205 -26.1731
ltibia 135.903
lfoot 32.022 -13.0174
ltoes -11.0975
